<?xml version="1.0" standalone="no"?>
<!DOCTYPE svg PUBLIC "-//W3C//DTD SVG 20010904//EN"
 "http://www.w3.org/TR/2001/REC-SVG-20010904/DTD/svg10.dtd">
<svg version="1.0" xmlns="http://www.w3.org/2000/svg"
 width="220.000000pt" height="220.000000pt" viewBox="0 0 220.000000 220.000000"
 preserveAspectRatio="xMidYMid meet">
<metadata>
Created by potrace 1.11, written by Peter Selinger 2001-2013
</metadata>
<g transform="translate(0.000000,220.000000) scale(0.100000,-0.100000)"
fill="#000000" stroke="none">
<path d="M943 1855 c-18 -8 -34 -20 -34 -27 -1 -7 -3 -24 -5 -38 -1 -14 -5
-45 -7 -70 l-5 -45 -56 -3 -56 -3 0 69 c0 69 0 70 -33 85 -72 35 -81 36 -135
18 -75 -26 -82 -34 -76 -89 8 -60 12 -87 14 -87 1 0 3 -11 4 -25 0 -14 4 -30
9 -37 4 -6 4 -19 0 -30 -6 -18 -13 -24 -80 -81 -18 -15 -33 -32 -33 -37 0 -6
-8 -18 -19 -27 -14 -12 -18 -27 -16 -62 1 -27 -3 -46 -9 -47 -6 -1 -24 -2 -39
-3 -34 -3 -37 -7 -73 -71 -109 -197 -109 -208 1 -212 105 -3 96 2 79 -38 -8
-19 -14 -38 -14 -42 0 -5 -5 -25 -11 -46 -16 -61 -10 -71 46 -77 l50 -5 0 -83
0 -84 55 -22 c65 -27 64 -26 89 -33 11 -3 26 -22 35 -46 13 -34 116 -159 116
-141 0 2 12 -3 26 -13 15 -10 41 -16 59 -15 29 3 32 1 33 -30 2 -58 5 -68 17
-68 7 0 23 -9 36 -20 40 -33 43 -35 81 -59 21 -12 38 -27 38 -32 0 -5 7 -9 16
-9 9 0 12 -5 8 -12 -4 -6 -3 -8 4 -4 6 3 16 0 24 -7 15 -15 61 -12 66 3 2 6 9
10 15 10 7 0 18 9 25 20 7 11 19 20 27 20 8 0 15 5 15 10 0 6 5 10 10 10 5 0
19 8 29 17 38 35 49 42 55 36 3 -4 6 -1 6 5 0 6 8 13 18 16 14 5 18 16 17 49
0 35 3 42 20 43 77 4 165 74 205 162 21 47 25 50 102 78 79 29 110 49 92 62
-5 4 -11 37 -12 75 l-4 67 44 1 c23 1 47 1 51 0 17 -3 18 31 2 91 -9 35 -19
74 -21 88 l-4 25 82 0 83 0 3 29 c2 16 -1 33 -7 39 -6 6 -11 19 -11 29 0 10
-5 18 -11 18 -5 0 -7 5 -4 10 3 6 -1 13 -9 16 -9 3 -14 9 -12 13 2 3 -13 33
-33 66 -34 56 -39 60 -74 60 -30 -1 -37 3 -38 20 -1 11 -2 34 -3 50 -2 37 -60
107 -131 159 -20 14 -27 64 -13 83 6 7 7 17 3 23 -3 5 -3 16 1 22 9 14 10 22
17 85 5 50 1 54 -74 82 l-55 21 -45 -22 c-24 -11 -50 -21 -56 -21 -12 0 -18
-50 -13 -118 1 -25 -1 -26 -54 -28 -31 -1 -56 2 -57 6 0 5 -2 17 -5 28 -2 11
-5 42 -7 68 -3 33 -11 56 -26 70 -20 20 -33 22 -169 24 -111 2 -155 -1 -179
-12z"/>
</g>
</svg>
